<?xml version="1.0" encoding="UTF-8" standalone="no"?>
<svg
   xmlns:dc="http://purl.org/dc/elements/1.1/"
   xmlns:cc="http://creativecommons.org/ns#"
   xmlns:rdf="http://www.w3.org/1999/02/22-rdf-syntax-ns#"
   xmlns:svg="http://www.w3.org/2000/svg"
   xmlns="http://www.w3.org/2000/svg"
   xmlns:sodipodi="http://sodipodi.sourceforge.net/DTD/sodipodi-0.dtd"
   xmlns:inkscape="http://www.inkscape.org/namespaces/inkscape"
   inkscape:version="1.0 (4035a4fb49, 2020-05-01)"
   inkscape:export-ydpi="3072"
   inkscape:export-xdpi="3072"
   inkscape:export-filename="C:\Users\Ben\Documents\Dissertation\demonstration\Assets\Textures\ring2.png"
   sodipodi:docname="ring2.svg"
   id="svg843"
   version="1.1"
   viewBox="0 0 8.4666665 8.4666669"
   height="32"
   width="32">
  <defs
     id="defs837" />
  <sodipodi:namedview
     inkscape:pagecheckerboard="true"
     inkscape:window-maximized="1"
     inkscape:window-y="-8"
     inkscape:window-x="-8"
     inkscape:window-height="1017"
     inkscape:window-width="1920"
     units="px"
     showgrid="false"
     inkscape:document-rotation="0"
     inkscape:current-layer="layer1"
     inkscape:document-units="px"
     inkscape:cy="19.963353"
     inkscape:cx="32.343352"
     inkscape:zoom="15.839192"
     inkscape:pageshadow="2"
     inkscape:pageopacity="0.0"
     borderopacity="1.0"
     bordercolor="#666666"
     pagecolor="#ffffff"
     id="base" />
  <metadata
     id="metadata840">
    <rdf:RDF>
      <cc:Work
         rdf:about="">
        <dc:format>image/svg+xml</dc:format>
        <dc:type
           rdf:resource="http://purl.org/dc/dcmitype/StillImage" />
        <dc:title></dc:title>
      </cc:Work>
    </rdf:RDF>
  </metadata>
  <g
     id="layer1"
     inkscape:groupmode="layer"
     inkscape:label="Layer 1">
    <path
       transform="scale(0.26458333)"
       d="M 0,16 A 16.000001,16.000001 0 0 0 16,32 16.000001,16.000001 0 0 0 32,16 H 31 A 15,15 0 0 1 16,31 15,15 0 0 1 1,16 Z"
       style="fill:#777777;fill-opacity:1;stroke-width:5.66929;stroke-linejoin:round;paint-order:markers fill stroke;stop-color:#000000"
       id="path1406" />
    <path
       transform="scale(0.26458333)"
       d="M 1,16 A 15,15 0 0 0 16,31 15,15 0 0 0 31,16 H 30 A 14,14 0 0 1 16,30 14,14 0 0 1 2,16 Z"
       style="fill:#777777;fill-opacity:1;stroke-width:5.66929;stroke-linejoin:round;paint-order:markers fill stroke;stop-color:#000000"
       id="path1424" />
    <path
       transform="scale(0.26458333)"
       d="M 16,0 A 16.000001,16.000001 0 0 0 0,16 H 1 A 15,15 0 0 1 15.886719,1 15,15 0 0 1 16,1 15,15 0 0 1 31,16 h 1 A 16.000001,16.000001 0 0 0 16,0 Z"
       style="fill:#777777;fill-opacity:1;stroke-width:5.66929;stroke-linejoin:round;paint-order:markers fill stroke;stop-color:#000000"
       id="path1432" />
    <path
       transform="scale(0.26458333)"
       d="M 15.886719,1 A 15,15 0 0 0 1,16 H 2 A 14,14 0 0 1 16,2 14,14 0 0 1 30,16 h 1 A 15,15 0 0 0 16,1 15,15 0 0 0 15.886719,1 Z"
       style="fill:#777777;fill-opacity:1;stroke-width:5.66929;stroke-linejoin:round;paint-order:markers fill stroke;stop-color:#000000"
       id="path1434" />
    <path
       transform="scale(0.26458333)"
       d="M 15.951172,0.66601562 A 15.333167,15.333333 0 0 0 0.66601562,16 15.333167,15.333333 0 0 0 16,31.333984 15.333167,15.333333 0 0 0 31.333984,16 15.333167,15.333333 0 0 0 16,0.66601562 a 15.333167,15.333333 0 0 0 -0.04883,0 z m -0.125,0.66796878 A 14.666667,14.6665 0 0 1 16,1.3339844 14.666667,14.6665 0 0 1 30.666016,16 14.666667,14.6665 0 0 1 16,30.666016 14.666667,14.6665 0 0 1 1.3339844,16 14.666667,14.6665 0 0 1 15.826172,1.3339844 Z"
       style="fill:#ffffff;fill-opacity:0.91935486;stroke:none;stroke-width:5.66929;stroke-linejoin:round;paint-order:markers fill stroke;stop-color:#000000"
       id="path1472" />
  </g>
</svg>
