<?xml version="1.0" encoding="UTF-8" standalone="no"?>
<svg
   xmlns:dc="http://purl.org/dc/elements/1.1/"
   xmlns:cc="http://creativecommons.org/ns#"
   xmlns:rdf="http://www.w3.org/1999/02/22-rdf-syntax-ns#"
   xmlns:svg="http://www.w3.org/2000/svg"
   xmlns="http://www.w3.org/2000/svg"
   xmlns:sodipodi="http://sodipodi.sourceforge.net/DTD/sodipodi-0.dtd"
   xmlns:inkscape="http://www.inkscape.org/namespaces/inkscape"
   inkscape:export-ydpi="1536"
   inkscape:export-xdpi="1536"
   inkscape:export-filename="C:\Users\Ben\Documents\Dissertation\demonstration\Assets\Textures\tiles.png"
   sodipodi:docname="tiles.svg"
   width="32"
   height="32"
   viewBox="0 0 8.4666667 8.4666667"
   version="1.1"
   id="svg8"
   inkscape:version="1.0 (4035a4fb49, 2020-05-01)">
  <defs
     id="defs2" />
  <sodipodi:namedview
     inkscape:pagecheckerboard="true"
     inkscape:window-maximized="1"
     inkscape:window-y="-8"
     inkscape:window-x="-8"
     inkscape:window-height="1017"
     inkscape:window-width="1920"
     id="base"
     pagecolor="#ffffff"
     bordercolor="#666666"
     borderopacity="1.0"
     inkscape:pageopacity="0.0"
     inkscape:pageshadow="2"
     inkscape:zoom="15.839192"
     inkscape:cx="22.826446"
     inkscape:cy="12.542852"
     inkscape:document-units="px"
     inkscape:current-layer="layer1"
     inkscape:document-rotation="0"
     showgrid="true"
     units="px">
    <inkscape:grid
       type="xygrid"
       id="grid833"
       empspacing="4" />
  </sodipodi:namedview>
  <metadata
     id="metadata5">
    <rdf:RDF>
      <cc:Work
         rdf:about="">
        <dc:format>image/svg+xml</dc:format>
        <dc:type
           rdf:resource="http://purl.org/dc/dcmitype/StillImage" />
        <dc:title></dc:title>
      </cc:Work>
    </rdf:RDF>
  </metadata>
  <g
     inkscape:label="Layer 1"
     inkscape:groupmode="layer"
     id="layer1">
    <path
       inkscape:connector-curvature="0"
       id="rect816"
       d="M 5.2916666,4.7625 C 4.9985083,4.7625 4.7625,4.9985083 4.7625,5.2916666 v 2.1166666 c 0,0.2931584 0.2360083,0.5291667 0.5291666,0.5291667 H 7.4083333 C 7.7014915,7.9374999 7.9375,7.7014916 7.9375,7.4083332 V 5.2916666 C 7.9375,4.9985083 7.7014915,4.7625 7.4083333,4.7625 Z m 0.1322917,0.2645833 h 1.8520833 c 0.2198688,0 0.396875,0.1770062 0.396875,0.396875 v 1.8520833 c 0,0.2198687 -0.1770062,0.396875 -0.396875,0.396875 H 5.4239583 c -0.2198688,0 -0.396875,-0.1770063 -0.396875,-0.396875 V 5.4239583 c 0,-0.2198688 0.1770062,-0.396875 0.396875,-0.396875 z"
       style="opacity:1;fill:#ffffff;fill-opacity:1;stroke:none;stroke-width:0.132292;stroke-linecap:butt;stroke-linejoin:miter;stroke-miterlimit:4;stroke-dasharray:none;stroke-opacity:0.162437;paint-order:stroke markers fill" />
    <path
       inkscape:connector-curvature="0"
       id="path825"
       d="m 5.2916667,0.52916667 c -0.2931584,0 -0.5291667,0.2360084 -0.5291667,0.52916673 v 2.1166667 c 0,0.2931583 0.2360083,0.5291667 0.5291667,0.5291667 H 7.4083333 C 7.7014917,3.7041668 7.9375,3.4681584 7.9375,3.1750001 V 1.0583334 c 0,-0.29315833 -0.2360083,-0.52916673 -0.5291667,-0.52916673 z"
       style="opacity:1;fill:#ffffff;fill-opacity:1;stroke:none;stroke-width:0.132292;stroke-linecap:butt;stroke-linejoin:miter;stroke-miterlimit:4;stroke-dasharray:none;stroke-opacity:0.162437;paint-order:stroke markers fill" />
    <path
       style="opacity:1;fill:#ffffff;fill-opacity:1;stroke:none;stroke-width:0.132292;stroke-linecap:butt;stroke-linejoin:miter;stroke-miterlimit:4;stroke-dasharray:none;stroke-opacity:0.162437;paint-order:stroke markers fill"
       d="m 1.0583333,0.52916667 c -0.29315826,0 -0.52916656,0.2360083 -0.52916656,0.52916663 v 2.1166666 c 0,0.2931584 0.2360083,0.5291667 0.52916656,0.5291667 H 3.175 c 0.2931582,0 0.5291667,-0.2360083 0.5291667,-0.5291667 V 1.0583333 C 3.7041667,0.76517497 3.4681582,0.52916667 3.175,0.52916667 Z m 0.1322917,0.2645833 h 1.8520833 c 0.2198688,0 0.396875,0.1770062 0.396875,0.39687503 v 1.8520833 c 0,0.2198687 -0.1770062,0.396875 -0.396875,0.396875 H 1.190625 c -0.21986876,0 -0.39687496,-0.1770063 -0.39687496,-0.396875 V 1.190625 c 0,-0.21986883 0.1770062,-0.39687503 0.39687496,-0.39687503 z"
       id="path827"
       inkscape:connector-curvature="0" />
    <path
       style="opacity:1;fill:#ffffff;fill-opacity:1;stroke:none;stroke-width:0.132292;stroke-linecap:butt;stroke-linejoin:miter;stroke-miterlimit:4;stroke-dasharray:none;stroke-opacity:0.162437;paint-order:stroke markers fill"
       d="m 1.5875,1.3229167 c -0.1465792,0 -0.2645833,0.1180042 -0.2645833,0.2645834 v 1.0583333 c 0,0.1465791 0.1180041,0.2645833 0.2645833,0.2645833 h 1.0583333 c 0.1465792,0 0.2645833,-0.1180042 0.2645833,-0.2645833 V 1.5875001 c 0,-0.1465792 -0.1180041,-0.2645834 -0.2645833,-0.2645834 z"
       id="path829"
       inkscape:connector-curvature="0" />
  </g>
  <inkscape:templateinfo>
    <inkscape:name>GameArt</inkscape:name>
    <inkscape:author>Ben</inkscape:author>
    <inkscape:date>2021-04-08</inkscape:date>
  </inkscape:templateinfo>
</svg>
