<?xml version="1.0" encoding="UTF-8" standalone="no"?>
<svg
   xmlns:dc="http://purl.org/dc/elements/1.1/"
   xmlns:cc="http://creativecommons.org/ns#"
   xmlns:rdf="http://www.w3.org/1999/02/22-rdf-syntax-ns#"
   xmlns:svg="http://www.w3.org/2000/svg"
   xmlns="http://www.w3.org/2000/svg"
   xmlns:sodipodi="http://sodipodi.sourceforge.net/DTD/sodipodi-0.dtd"
   xmlns:inkscape="http://www.inkscape.org/namespaces/inkscape"
   sodipodi:docname="items.svg"
   inkscape:export-ydpi="384"
   inkscape:export-xdpi="384"
   inkscape:export-filename="C:\Users\Ben\Documents\Dissertation\demonstration\Assets\Textures\Items\warhammer.png"
   inkscape:version="1.0 (4035a4fb49, 2020-05-01)"
   id="svg8"
   version="1.1"
   viewBox="0 0 8.4666667 8.4666667"
   height="32"
   width="32">
  <defs
     id="defs2" />
  <sodipodi:namedview
     inkscape:window-maximized="1"
     inkscape:window-y="-8"
     inkscape:window-x="-8"
     inkscape:window-height="1017"
     inkscape:window-width="1920"
     showguides="true"
     inkscape:snap-bbox="true"
     inkscape:snap-to-guides="true"
     inkscape:snap-grids="true"
     units="px"
     showgrid="true"
     inkscape:document-rotation="0"
     inkscape:current-layer="g1148"
     inkscape:document-units="px"
     inkscape:cy="-10.96931"
     inkscape:cx="9.6244568"
     inkscape:zoom="5.6568543"
     inkscape:pageshadow="2"
     inkscape:pageopacity="0"
     borderopacity="1.0"
     bordercolor="#666666"
     pagecolor="#7c7c7c"
     id="base"
     inkscape:pagecheckerboard="true">
    <inkscape:grid
       visible="true"
       enabled="true"
       empspacing="4"
       id="grid833"
       type="xygrid"
       color="#578bc7"
       opacity="0.50196078"
       empcolor="#7ca4d3"
       empopacity="0.74509804" />
    <sodipodi:guide
       id="guide1075"
       orientation="0,32"
       position="1.5875,8.4666667" />
    <sodipodi:guide
       id="guide1077"
       orientation="32,0"
       position="8.4666667,8.4666667" />
    <sodipodi:guide
       id="guide1079"
       orientation="0,-32"
       position="8.4666667,0" />
    <sodipodi:guide
       id="guide1081"
       orientation="-32,0"
       position="0,0" />
  </sodipodi:namedview>
  <metadata
     id="metadata5">
    <rdf:RDF>
      <cc:Work
         rdf:about="">
        <dc:format>image/svg+xml</dc:format>
        <dc:type
           rdf:resource="http://purl.org/dc/dcmitype/StillImage" />
        <dc:title></dc:title>
      </cc:Work>
    </rdf:RDF>
  </metadata>
  <g
     id="layer1"
     inkscape:groupmode="layer"
     inkscape:label="Layer 1">
    <path
       sodipodi:nodetypes="ccccccccccccc"
       id="path835"
       d="m 11.244792,3.175 v 1.3229167 h 1.984375 v 1.9843749 h 1.322916 V 4.4979167 h 1.984375 V 3.175 H 14.552083 V 1.1906253 H 13.229167 V 3.175 h -1.984375"
       style="fill:#ffffff;fill-opacity:1;stroke:#ffffff;stroke-width:0.529167;stroke-linecap:round;stroke-linejoin:round;stroke-miterlimit:4;stroke-dasharray:none;stroke-opacity:1" />
    <g
       transform="translate(16.404167,-1.0583333)"
       id="g879">
      <path
         id="path837"
         style="fill:#ffffff;fill-opacity:1;stroke:#ffffff;stroke-width:0.264583;stroke-linecap:round;stroke-linejoin:round;stroke-miterlimit:4;stroke-dasharray:none;stroke-opacity:1"
         d="m 2.2489584,3.9388777 0.3968749,3.3371639 h 1.5875 1.5875001 L 6.2177083,3.9388777 H 2.2489584 m 0.396875,0.2944556 h 0.7937499 l 0.15875,2.7482527 H 2.9633334 Z m 1.1906249,0 h 0.79375 L 4.5508333,6.981586 h -0.3175 -0.3175 z m 1.190625,0 h 0.79375 l -0.3175,2.7482527 h -0.3175 -0.3175 z"
         sodipodi:nodetypes="ccccccccccccccccccccccc" />
      <path
         style="fill:#ffffff;fill-opacity:1;stroke:#ffffff;stroke-width:0.264583;stroke-linecap:round;stroke-linejoin:round;stroke-miterlimit:4;stroke-dasharray:none;stroke-opacity:1"
         d="M 1.8520833,3.4395833 H 6.6145834 V 2.9104166 H 1.8520833 v 0.5291667"
         id="path839"
         sodipodi:nodetypes="ccccc" />
      <path
         style="fill:none;stroke:#ffffff;stroke-width:0.264583;stroke-linecap:butt;stroke-linejoin:round;stroke-miterlimit:4;stroke-dasharray:none;stroke-opacity:1"
         d="m 3.4395833,3.175 v 0 -0.79375 h 1.5875 V 3.175"
         id="path874" />
    </g>
    <g
       transform="rotate(45,0.74835461,-6.3610148)"
       id="g919">
      <path
         style="fill:#ffffff;fill-opacity:1;stroke:#ffffff;stroke-width:0.264583;stroke-linecap:butt;stroke-linejoin:round;stroke-miterlimit:4;stroke-dasharray:none;stroke-opacity:1"
         d="M 4.2333333,7.2760414 H 3.96875 V 6.2177082 H 4.4979166 V 7.2760414 H 4.2333333"
         id="path905" />
      <path
         id="rect907"
         style="opacity:1;fill:#ffffff;fill-opacity:1;stroke:#ffffff;stroke-width:0.264583;stroke-linecap:round;stroke-linejoin:round;stroke-miterlimit:4;stroke-dasharray:none;stroke-opacity:1;paint-order:stroke markers fill;stop-color:#000000"
         d="m 3.175,5.0270834 c 0,0 0.1493517,0.2168528 0.2645833,0.2645833 0.4888863,0.2025033 1.0986138,0.2025033 1.5875001,0 C 5.142315,5.2439362 5.2916667,5.0270834 5.2916667,5.0270834 V 5.5562501 L 4.7625,5.8208334 H 4.4979167 3.9213451 3.7041667 L 3.1750002,5.5562501 3.175,5.0270834"
         sodipodi:nodetypes="csscccccccc" />
      <path
         id="rect909"
         style="opacity:1;fill:#ffffff;fill-opacity:1;stroke:#ffffff;stroke-width:0.264583;stroke-linecap:round;stroke-linejoin:round;stroke-miterlimit:4;stroke-dasharray:none;stroke-opacity:1;paint-order:stroke markers fill;stop-color:#000000"
         d="m 3.96875,1.4760965 0.2645833,-0.4177632 0.2645834,0.4177632 -2e-7,3.5509868 H 3.96875 Z"
         sodipodi:nodetypes="cccccc" />
      <circle
         style="opacity:1;fill:#ffffff;fill-opacity:1;stroke:#ffffff;stroke-width:0.396875;stroke-linecap:round;stroke-linejoin:round;stroke-miterlimit:4;stroke-dasharray:none;stroke-opacity:1;paint-order:stroke markers fill;stop-color:#000000"
         id="path913"
         cx="4.2333331"
         cy="7.4083333"
         r="0.26458332" />
    </g>
    <g
       id="g937"
       transform="rotate(45,17.734204,-4.3069334)">
      <path
         id="path921"
         d="M 4.2333333,7.6729167 H 3.96875 v -1.5875 h 0.5291666 v 1.5875 H 4.2333333"
         style="fill:#ffffff;fill-opacity:1;stroke:none;stroke-width:0.132293;stroke-linecap:butt;stroke-linejoin:round;stroke-miterlimit:4;stroke-dasharray:none;stroke-opacity:1" />
      <path
         sodipodi:nodetypes="cccccc"
         d="M 3.96875,0.44561405 4.2333333,-4.875e-8 4.4979167,0.44561405 l -2e-7,4.84605275 H 3.96875 Z"
         style="opacity:1;fill:#ffffff;fill-opacity:1;stroke:#ffffff;stroke-width:0.132292;stroke-linecap:round;stroke-linejoin:round;stroke-miterlimit:4;stroke-dasharray:none;stroke-opacity:1;paint-order:stroke markers fill;stop-color:#000000"
         id="path925" />
      <circle
         r="0.26458332"
         cy="7.6784725"
         cx="4.2333331"
         id="circle927"
         style="opacity:1;fill:#ffffff;fill-opacity:1;stroke:#ffffff;stroke-width:0.264583;stroke-linecap:round;stroke-linejoin:round;stroke-miterlimit:4;stroke-dasharray:none;stroke-opacity:1;paint-order:stroke markers fill;stop-color:#000000" />
      <path
         style="fill:#ffffff;fill-opacity:1;stroke:#ffffff;stroke-width:0.132292;stroke-linecap:butt;stroke-linejoin:round;stroke-miterlimit:4;stroke-dasharray:none;stroke-opacity:1"
         d="M 4.2333336,5.8208333 H 2.9104169 V 5.55625 H 5.5562501 V 5.8208333 H 4.2333336"
         id="path931" />
    </g>
    <g
       id="g954"
       transform="rotate(45,10.548953,-15.375651)">
      <path
         sodipodi:nodetypes="ccccc"
         id="path939"
         d="m 3.96875,8.2020833 0.5291666,-10e-8 L 4.7625,2.6458333 H 3.7041667 l 0.2645833,5.55625"
         style="fill:#ffffff;fill-opacity:1;stroke:#ffffff;stroke-width:0.264583;stroke-linecap:round;stroke-linejoin:round;stroke-miterlimit:4;stroke-dasharray:none;stroke-opacity:1" />
      <path
         sodipodi:nodetypes="cczc"
         id="path941"
         d="m 1.0583333,4.7314839 v 0 c 0,0 0.79375,-2.0856506 3.175,-2.0856506 2.38125,0 3.1749999,2.0856506 3.1749999,2.0856506"
         style="fill:none;stroke:#ffffff;stroke-width:0.529167;stroke-linecap:round;stroke-linejoin:round;stroke-miterlimit:4;stroke-dasharray:none;stroke-opacity:1" />
      <path
         id="path943"
         d="m 1.0583333,4.7624999 3.175,1.3229166 3.1749999,-1.3229166"
         style="fill:none;stroke:#ffffff;stroke-width:0.264583px;stroke-linecap:butt;stroke-linejoin:miter;stroke-opacity:1" />
      <path
         id="path945"
         d="m 4.2333333,3.7041666 v 0 V 2.38125"
         style="fill:none;stroke:#ffffff;stroke-width:0.529167;stroke-linecap:round;stroke-linejoin:round;stroke-miterlimit:4;stroke-dasharray:none;stroke-opacity:1" />
      <path
         id="path947"
         d="m 3.7041666,2.9104166 v 0 L 3.4395833,1.5874999 h 1.5875 L 4.7624999,2.9104166"
         style="fill:none;stroke:#ffffff;stroke-width:0.264583px;stroke-linecap:butt;stroke-linejoin:round;stroke-opacity:1" />
    </g>
    <g
       transform="translate(9.6383929,-13.323661)"
       id="g988">
      <path
         id="path958"
         d="M 4.2333333,1.3229167 2.1166667,4.2333333 4.2333333,7.1437499"
         style="fill:none;stroke:#ffffff;stroke-width:0.264583px;stroke-linecap:butt;stroke-linejoin:miter;stroke-opacity:1" />
      <path
         sodipodi:nodetypes="cccc"
         id="path960"
         d="m 6.647848,4.2333187 v 0 l -4.5311812,1.46e-5 5.0270835,-1.45e-5"
         style="fill:none;fill-opacity:1;stroke:#ffffff;stroke-width:0.529167;stroke-linecap:butt;stroke-linejoin:miter;stroke-miterlimit:4;stroke-dasharray:none;stroke-opacity:1" />
      <path
         id="path962"
         d="m 7.1437505,4.4979166 v 0 m 0,0 L 7.6729167,4.2333333 7.1437505,3.96875 v 0.5291666"
         style="fill:#ffffff;fill-opacity:1;stroke:#ffffff;stroke-width:0.264583;stroke-linecap:round;stroke-linejoin:round;stroke-miterlimit:4;stroke-dasharray:none;stroke-opacity:1"
         sodipodi:nodetypes="cccccc" />
      <path
         style="fill:none;stroke:#ffffff;stroke-width:0.529167;stroke-linecap:round;stroke-linejoin:round;stroke-miterlimit:4;stroke-dasharray:none;stroke-opacity:1"
         d="m 4.2333333,1.3229166 c 0,0.7937501 1.7667225,1.1399624 2.1166666,1.8520834 0.3623278,0.7373212 0.3394727,1.3685474 0,2.1166666 C 6.0105272,6.0397858 4.2333333,6.35 4.2333333,7.1437499"
         id="path979"
         sodipodi:nodetypes="cssc" />
      <path
         style="fill:#ffffff;fill-opacity:1;stroke:#ffffff;stroke-width:0.396875;stroke-linecap:butt;stroke-linejoin:round;stroke-miterlimit:4;stroke-dasharray:none;stroke-opacity:1"
         d="M 2.9104166,4.2333333 2.6458333,3.96875 h -0.79375 v 0.5291666 h 0.79375 z"
         id="path981" />
    </g>
    <g
       transform="translate(-20.571354,-1.6867188)"
       id="g1033">
      <path
         style="fill:none;stroke:#ffffff;stroke-width:0.529167;stroke-linecap:butt;stroke-linejoin:round;stroke-miterlimit:4;stroke-dasharray:none;stroke-opacity:1"
         d="m 5.2916666,-2.6458333 c -1.8520834,0 -2.1166667,0.7937499 -2.1166667,0.7937499 v 4.2333333 c 0,0 0.2645833,0.7937497 2.1166667,0.7937499 C 7.14375,3.175 7.4083332,2.3812499 7.4083332,2.3812499 v -4.2333333 c 0,0 -0.2645832,-0.7937499 -2.1166666,-0.7937499 z"
         id="path990"
         sodipodi:nodetypes="zcczccz" />
      <path
         id="path992"
         style="fill:#ffffff;fill-opacity:1;stroke:none;stroke-width:0.264583px;stroke-linecap:butt;stroke-linejoin:miter;stroke-opacity:1"
         d="m 5.2916666,-2.1166667 v 1.32395012 c 0.5808919,5.8208e-4 1.0578166,0.47524881 1.0578166,1.05626639 0,0.58101732 -0.4769244,1.05827589 -1.0578166,1.05885009 v 1.3234333 c 1.0583333,0 1.5875,-0.5291666 1.5875,-0.5291666 V -1.5875 c 0,0 -0.5291667,-0.5291667 -1.5875,-0.5291667 z"
         sodipodi:nodetypes="ccsccccc" />
      <path
         id="path1018"
         style="color:#000000;font-style:normal;font-variant:normal;font-weight:normal;font-stretch:normal;font-size:medium;line-height:normal;font-family:sans-serif;font-variant-ligatures:normal;font-variant-position:normal;font-variant-caps:normal;font-variant-numeric:normal;font-variant-alternates:normal;font-variant-east-asian:normal;font-feature-settings:normal;font-variation-settings:normal;text-indent:0;text-align:start;text-decoration:none;text-decoration-line:none;text-decoration-style:solid;text-decoration-color:#000000;letter-spacing:normal;word-spacing:normal;text-transform:none;writing-mode:lr-tb;direction:ltr;text-orientation:mixed;dominant-baseline:auto;baseline-shift:baseline;text-anchor:start;white-space:normal;shape-padding:0;shape-margin:0;inline-size:0;clip-rule:nonzero;display:inline;overflow:visible;visibility:visible;isolation:auto;mix-blend-mode:normal;color-interpolation:sRGB;color-interpolation-filters:linearRGB;solid-color:#000000;solid-opacity:1;vector-effect:none;fill:#ffffff;fill-opacity:1;fill-rule:nonzero;stroke:none;stroke-width:0.529167;stroke-linecap:round;stroke-linejoin:round;stroke-miterlimit:4;stroke-dasharray:none;stroke-dashoffset:0;stroke-opacity:1;paint-order:stroke markers fill;color-rendering:auto;image-rendering:auto;shape-rendering:auto;text-rendering:auto;enable-background:accumulate;stop-color:#000000"
         d="m 5.2916666,-0.52916672 c -0.4383759,0 -0.79375,0.35537405 -0.79375,0.79374999 0,0.43837595 0.3553741,0.79375003 0.79375,0.79375003 0.438376,0 0.79375,-0.35537408 0.79375,-0.79375003 0,-0.43837594 -0.355374,-0.79374999 -0.79375,-0.79374999 z m 0,0.26458333 c 0.2923368,4.472e-5 0.5293831,0.23662852 0.5296834,0.52864993 2.646e-4,0.29182139 -0.235998,0.52878461 -0.5281332,0.52968339 l -0.00155,-0.52916666 z"
         sodipodi:nodetypes="sssssccccc" />
    </g>
    <g
       id="g1089">
      <g
         transform="translate(-18.234029,-15.478642)"
         id="g1132">
        <path
           id="path1127"
           style="color:#000000;font-style:normal;font-variant:normal;font-weight:normal;font-stretch:normal;font-size:medium;line-height:normal;font-family:sans-serif;font-variant-ligatures:normal;font-variant-position:normal;font-variant-caps:normal;font-variant-numeric:normal;font-variant-alternates:normal;font-variant-east-asian:normal;font-feature-settings:normal;font-variation-settings:normal;text-indent:0;text-align:start;text-decoration:none;text-decoration-line:none;text-decoration-style:solid;text-decoration-color:#000000;letter-spacing:normal;word-spacing:normal;text-transform:none;writing-mode:lr-tb;direction:ltr;text-orientation:mixed;dominant-baseline:auto;baseline-shift:baseline;text-anchor:start;white-space:normal;shape-padding:0;shape-margin:0;inline-size:0;clip-rule:nonzero;display:inline;overflow:visible;visibility:visible;opacity:1;isolation:auto;mix-blend-mode:normal;color-interpolation:sRGB;color-interpolation-filters:linearRGB;solid-color:#000000;solid-opacity:1;vector-effect:none;fill:#ffffff;fill-opacity:1;fill-rule:nonzero;stroke:none;stroke-width:2;stroke-linecap:round;stroke-linejoin:round;stroke-miterlimit:4;stroke-dasharray:none;stroke-dashoffset:0;stroke-opacity:1;color-rendering:auto;image-rendering:auto;shape-rendering:auto;text-rendering:auto;enable-background:accumulate;stop-color:#000000;stop-opacity:1"
           d="m 24.691406,6.3398438 a 1.0000006,1.0000006 0 0 0 -0.05859,0.00195 1.0000006,1.0000006 0 0 0 -0.677734,0.2871093 L 21.50391,9.080075 v 1.416016 h 1.417969 l 2.449219,-2.4492191 a 1.0000006,1.0000006 0 0 0 0,-1.4179688 A 1.0000006,1.0000006 0 0 0 24.69141,6.3398407 Z M 20.5,10.083984 4.15625,26.427734 a 1.0000006,1.0000006 0 0 0 0,1.416016 1.0000006,1.0000006 0 0 0 1.4179688,0 L 21.916016,11.501953 H 21.001953 A 0.50004933,0.50004933 0 0 1 20.5,10.998047 Z"
           transform="scale(0.26458333)" />
        <path
           sodipodi:nodetypes="ccccc"
           id="path1085"
           d="m 7.2735301,1.1931366 -1.1225319,0.3741772 -1e-7,0.7483548 0.7483547,-10e-8 0.3741773,-1.1225319"
           style="fill:#ffffff;fill-opacity:1;stroke:#ffffff;stroke-width:0.264583;stroke-linecap:round;stroke-linejoin:round;stroke-miterlimit:4;stroke-dasharray:none;stroke-opacity:1" />
      </g>
      <g
         id="g1148">
        <g
           transform="translate(4.2333331,5.5562499)"
           id="g1153">
          <g
             transform="rotate(45,-6.130812,-24.665886)"
             id="g1168">
            <path
               style="fill:#ffffff;fill-opacity:1;stroke:#ffffff;stroke-width:0.529167;stroke-linecap:round;stroke-linejoin:miter;stroke-miterlimit:4;stroke-dasharray:none;stroke-opacity:1"
               d="M 4.2333333,7.14375 V 0.79374997"
               id="path1134" />
            <path
               style="fill:#ffffff;fill-opacity:1;stroke:#ffffff;stroke-width:0.264583px;stroke-linecap:butt;stroke-linejoin:round;stroke-opacity:1"
               d="m 4.2333331,0.79374997 2e-7,4e-8 c -0.823148,10e-8 -3.70416665,1.05833329 -3.70416665,1.32291659 0.41157417,-0.2645833 2.88101865,-0.79375 3.70416665,-0.79375 h -2e-7 z"
               id="path1136"
               sodipodi:nodetypes="cccccc" />
            <path
               id="path1163"
               d="M 5.2916667,3.96875 H 4.2333333"
               style="fill:#ffffff;fill-opacity:1;stroke:#ffffff;stroke-width:0.529167;stroke-linecap:round;stroke-linejoin:miter;stroke-miterlimit:4;stroke-dasharray:none;stroke-opacity:1"
               sodipodi:nodetypes="cc" />
          </g>
        </g>
        <g
           id="g1161"
           transform="translate(-3.1250001e-8,-0.2645833)">
          <path
             sodipodi:nodetypes="cc"
             style="fill:#ffffff;fill-opacity:1;stroke:#ffffff;stroke-width:0.529167;stroke-linecap:round;stroke-linejoin:miter;stroke-miterlimit:4;stroke-dasharray:none;stroke-opacity:1"
             d="m 4.2333333,8.2020833 0,-7.40833333"
             id="path1155" />
          <path
             style="fill:#ffffff;fill-opacity:1;stroke:#ffffff;stroke-width:0.264583px;stroke-linecap:butt;stroke-linejoin:round;stroke-opacity:1"
             d="m 5.8208333,1.8520833 v -0.79375 h -0.79375 V 1.3229166 H 3.7041666 C 3.175,1.3229167 2.6458333,1.8520833 2.6458333,2.1166666 2.9104167,1.8520833 3.175,1.8520833 3.7041666,1.8520833 h 1.3229167 v 0.2645833 h 0.79375 z"
             id="path1157"
             sodipodi:nodetypes="ccccccccccc" />
          <path
             id="path1159"
             style="opacity:1;fill:#ffffff;fill-opacity:1;stroke:#ffffff;stroke-width:0.529167;stroke-linecap:round;stroke-linejoin:round;stroke-miterlimit:4;stroke-dasharray:none;stroke-opacity:1;paint-order:stroke markers fill;stop-color:#000000"
             d="M 3.96875,1.3229166 H 4.4979166 V 1.8520833 H 3.96875 V 1.3229166"
             sodipodi:nodetypes="ccccc" />
        </g>
        <g
           transform="translate(-6.5625e-8,1.3229167)"
           id="g1176">
          <path
             sodipodi:nodetypes="cc"
             id="path1170"
             d="m 6.0854167,-15.08125 v -3.439583"
             style="fill:#ffffff;fill-opacity:1;stroke:#ffffff;stroke-width:0.529167;stroke-linecap:round;stroke-linejoin:miter;stroke-miterlimit:4;stroke-dasharray:none;stroke-opacity:1" />
          <path
             sodipodi:nodetypes="ccccccc"
             id="path1172"
             d="M 7.6729167,-18.520833 H 6.6145834 m 0,0 c -0.79375,0 -1.0583333,-1e-6 -1.3229167,0.264583 0.2645834,-0.264584 1.0365025,-0.04291 1.5875,0.264583 0.1999057,0.12818 0.2645833,0.661459 0.2645833,0.661459 0.4827732,-0.40466 0.5291667,-0.680301 0.5291667,-1.190625"
             style="fill:#ffffff;fill-opacity:1;stroke:#ffffff;stroke-width:0.264583px;stroke-linecap:round;stroke-linejoin:round;stroke-opacity:1" />
        </g>
      </g>
    </g>
  </g>
  <inkscape:templateinfo>
    <inkscape:name>default</inkscape:name>
    <inkscape:date>2021-04-12</inkscape:date>
  </inkscape:templateinfo>
</svg>
